<?xml version="1.0" encoding="utf-8"?>
<!-- Generator: Adobe Illustrator 16.0.0, SVG Export Plug-In . SVG Version: 6.00 Build 0)  -->
<!DOCTYPE svg PUBLIC "-//W3C//DTD SVG 1.1//EN" "http://www.w3.org/Graphics/SVG/1.1/DTD/svg11.dtd">
<svg version="1.1" id="图层_1" xmlns="http://www.w3.org/2000/svg" xmlns:xlink="http://www.w3.org/1999/xlink" x="0px" y="0px"
	 width="352.033px" height="315.447px" viewBox="0 0 352.033 315.447" enable-background="new 0 0 352.033 315.447"
	 xml:space="preserve">
<g>
	<polygon points="288.131,161.964 288.01,156.674 176.676,161.964 	"/>
	
		<polygon fill="none" stroke="#000000" stroke-width="0.75" stroke-linecap="round" stroke-linejoin="round" stroke-miterlimit="10" points="
		288.131,161.964 288.01,156.674 176.676,161.964 	"/>
	
		<line fill="none" stroke="#000000" stroke-width="0.75" stroke-linecap="round" stroke-linejoin="round" stroke-miterlimit="10" x1="288.1" y1="159.323" x2="293.672" y2="159.186"/>
</g>
<text transform="matrix(1 0 0 1 299.2446 161.6318)"><tspan x="0" y="0" font-family="'ArialMT'" font-size="9">A</tspan><tspan x="5.742" y="0" font-family="'ArialMT'" font-size="9">CC(80)</tspan></text>
<g>
	<polygon fill="#9ACD32" points="288.01,156.674 287.711,152.316 287.25,147.967 286.618,143.642 285.815,139.34 284.843,135.071 
		283.702,130.852 176.676,161.964 	"/>
	
		<polygon fill="none" stroke="#000000" stroke-width="0.75" stroke-linecap="round" stroke-linejoin="round" stroke-miterlimit="10" points="
		288.01,156.674 287.711,152.316 287.25,147.967 286.618,143.642 285.815,139.34 284.843,135.071 283.702,130.852 176.676,161.964 	
		"/>
	
		<line fill="none" stroke="#000000" stroke-width="0.75" stroke-linecap="round" stroke-linejoin="round" stroke-miterlimit="10" x1="286.618" y1="143.642" x2="292.11" y2="142.718"/>
</g>
<text transform="matrix(1 0 0 1 297.6089 144.3784)" font-family="'ArialMT'" font-size="9">BLCA(397)</text>
<g>
	<polygon fill="#FF0000" points="283.702,130.852 282.592,127.271 281.369,123.732 280.024,120.232 278.567,116.782 
		276.986,113.388 275.301,110.043 273.496,106.754 271.583,103.53 269.566,100.371 267.445,97.285 265.224,94.272 262.892,91.332 
		260.47,88.472 257.96,85.702 255.343,83.013 252.646,80.413 249.867,77.902 247,75.488 244.051,73.179 176.676,161.964 	"/>
	
		<polygon fill="none" stroke="#000000" stroke-width="0.75" stroke-linecap="round" stroke-linejoin="round" stroke-miterlimit="10" points="
		283.702,130.852 282.592,127.271 281.369,123.732 280.024,120.232 278.567,116.782 276.986,113.388 275.301,110.043 
		273.496,106.754 271.583,103.53 269.566,100.371 267.445,97.285 265.224,94.272 262.892,91.332 260.47,88.472 257.96,85.702 
		255.343,83.013 252.646,80.413 249.867,77.902 247,75.488 244.051,73.179 176.676,161.964 	"/>
	
		<line fill="none" stroke="#000000" stroke-width="0.75" stroke-linecap="round" stroke-linejoin="round" stroke-miterlimit="10" x1="268.523" y1="98.824" x2="273.115" y2="95.666"/>
</g>
<text transform="matrix(1 0 0 1 277.7065 95.082)" font-family="'ArialMT'" font-size="9">BRCA(1077)</text>
<g>
	<polygon fill="#FFFFE0" points="244.051,73.179 240.107,70.312 236.033,67.631 231.853,65.128 227.568,62.803 176.676,161.964 	"/>
	
		<polygon fill="none" stroke="#000000" stroke-width="0.75" stroke-linecap="round" stroke-linejoin="round" stroke-miterlimit="10" points="
		244.051,73.179 240.107,70.312 236.033,67.631 231.853,65.128 227.568,62.803 176.676,161.964 	"/>
	
		<line fill="none" stroke="#000000" stroke-width="0.75" stroke-linecap="round" stroke-linejoin="round" stroke-miterlimit="10" x1="236.033" y1="67.631" x2="239.005" y2="62.917"/>
</g>
<text transform="matrix(1 0 0 1 244.3999 67.4409)" font-family="'ArialMT'" font-size="9">CESC(295)</text>
<g>
	<polygon fill="#FFE4B5" points="227.568,62.803 225.437,61.742 176.676,161.964 	"/>
	
		<polygon fill="none" stroke="#000000" stroke-width="0.75" stroke-linecap="round" stroke-linejoin="round" stroke-miterlimit="10" points="
		227.568,62.803 225.437,61.742 176.676,161.964 	"/>
	
		<line fill="none" stroke="#000000" stroke-width="0.75" stroke-linecap="round" stroke-linejoin="round" stroke-miterlimit="10" x1="226.507" y1="62.269" x2="228.994" y2="57.279"/>
</g>
<text transform="matrix(1 0 0 1 233.4888 56.4932)" font-family="'ArialMT'" font-size="9">CHOL(36)</text>
<g>
	<polygon fill="#43CD80" points="225.437,61.742 221.728,60.017 217.961,58.438 214.138,56.988 210.258,55.692 206.337,54.525 
		202.376,53.513 198.384,52.638 176.676,161.964 	"/>
	
		<polygon fill="none" stroke="#000000" stroke-width="0.75" stroke-linecap="round" stroke-linejoin="round" stroke-miterlimit="10" points="
		225.437,61.742 221.728,60.017 217.961,58.438 214.138,56.988 210.258,55.692 206.337,54.525 202.376,53.513 198.384,52.638 
		176.676,161.964 	"/>
	
		<line fill="none" stroke="#000000" stroke-width="0.75" stroke-linecap="round" stroke-linejoin="round" stroke-miterlimit="10" x1="212.203" y1="56.323" x2="213.976" y2="51.042"/>
</g>
<text transform="matrix(1 0 0 1 214.7583 47.3369)"><tspan x="0" y="0" font-family="'ArialMT'" font-size="9">C</tspan><tspan x="6.499" y="0" font-family="'ArialMT'" font-size="9">O</tspan><tspan x="13.329" y="0" font-family="'ArialMT'" font-size="9">AD(433)</tspan></text>
<g>
	<polygon fill="#E0EEE0" points="198.384,52.638 195.33,52.079 176.676,161.964 	"/>
	
		<polygon fill="none" stroke="#000000" stroke-width="0.75" stroke-linecap="round" stroke-linejoin="round" stroke-miterlimit="10" points="
		198.384,52.638 195.33,52.079 176.676,161.964 	"/>
	
		<line fill="none" stroke="#000000" stroke-width="0.75" stroke-linecap="round" stroke-linejoin="round" stroke-miterlimit="10" x1="196.861" y1="52.347" x2="197.865" y2="46.871"/>
</g>
<text transform="matrix(1 0 0 1 197.2573 37.7231)" font-family="'ArialMT'" font-size="9">DLBC(47)</text>
<g>
	<polygon fill="#FF00FF" points="195.33,52.079 189.304,51.228 183.253,50.702 176.676,161.964 	"/>
	
		<polygon fill="none" stroke="#000000" stroke-width="0.75" stroke-linecap="round" stroke-linejoin="round" stroke-miterlimit="10" points="
		195.33,52.079 189.304,51.228 183.253,50.702 176.676,161.964 	"/>
	
		<line fill="none" stroke="#000000" stroke-width="0.75" stroke-linecap="round" stroke-linejoin="round" stroke-miterlimit="10" x1="189.304" y1="51.228" x2="189.935" y2="45.688"/>
</g>
<text transform="matrix(1 0 0 1 178.7075 26.3916)" font-family="'ArialMT'" font-size="9">ESCA(184)</text>
<g>
	<polygon fill="#EE9A00" points="183.253,50.702 178.927,50.532 174.61,50.524 170.292,50.694 165.984,51.018 161.69,51.521 
		157.422,52.185 153.178,53.011 148.974,54.007 176.676,161.964 	"/>
	
		<polygon fill="none" stroke="#000000" stroke-width="0.75" stroke-linecap="round" stroke-linejoin="round" stroke-miterlimit="10" points="
		183.253,50.702 178.927,50.532 174.61,50.524 170.292,50.694 165.984,51.018 161.69,51.521 157.422,52.185 153.178,53.011 
		148.974,54.007 176.676,161.964 	"/>
	
		<line fill="none" stroke="#000000" stroke-width="0.75" stroke-linecap="round" stroke-linejoin="round" stroke-miterlimit="10" x1="165.984" y1="51.018" x2="165.449" y2="45.478"/>
</g>
<text transform="matrix(1 0 0 1 133.3247 35.2144)" font-family="'ArialMT'" font-size="9">HNSC(523)</text>
<g>
	<polygon fill="#00FF00" points="148.974,54.007 144.77,55.173 176.676,161.964 	"/>
	
		<polygon fill="none" stroke="#000000" stroke-width="0.75" stroke-linecap="round" stroke-linejoin="round" stroke-miterlimit="10" points="
		148.974,54.007 144.77,55.173 176.676,161.964 	"/>
	
		<line fill="none" stroke="#000000" stroke-width="0.75" stroke-linecap="round" stroke-linejoin="round" stroke-miterlimit="10" x1="146.868" y1="54.566" x2="145.377" y2="49.195"/>
</g>
<text transform="matrix(1 0 0 1 103.3794 46.4009)" font-family="'ArialMT'" font-size="9">KICH(66)</text>
<g>
	<polygon fill="#32CD32" points="144.77,55.173 140.712,56.469 136.702,57.919 132.75,59.531 128.87,61.281 125.054,63.184 
		121.312,65.233 117.651,67.42 114.079,69.746 176.676,161.964 	"/>
	
		<polygon fill="none" stroke="#000000" stroke-width="0.75" stroke-linecap="round" stroke-linejoin="round" stroke-miterlimit="10" points="
		144.77,55.173 140.712,56.469 136.702,57.919 132.75,59.531 128.87,61.281 125.054,63.184 121.312,65.233 117.651,67.42 
		114.079,69.746 176.676,161.964 	"/>
	
		<line fill="none" stroke="#000000" stroke-width="0.75" stroke-linecap="round" stroke-linejoin="round" stroke-miterlimit="10" x1="128.87" y1="61.281" x2="126.472" y2="56.251"/>
</g>
<text transform="matrix(1 0 0 1 78.1802 55.5981)" font-family="'ArialMT'" font-size="9">KIRC(516)</text>
<g>
	<polygon fill="#00FF7F" points="114.079,69.746 110.175,72.523 106.392,75.464 102.739,78.566 99.223,81.822 176.676,161.964 	"/>
	
		<polygon fill="none" stroke="#000000" stroke-width="0.75" stroke-linecap="round" stroke-linejoin="round" stroke-miterlimit="10" points="
		114.079,69.746 110.175,72.523 106.392,75.464 102.739,78.566 99.223,81.822 176.676,161.964 	"/>
	
		<line fill="none" stroke="#000000" stroke-width="0.75" stroke-linecap="round" stroke-linejoin="round" stroke-miterlimit="10" x1="106.392" y1="75.464" x2="102.877" y2="71.138"/>
</g>
<text transform="matrix(1 0 0 1 53.9858 69.3726)" font-family="'ArialMT'" font-size="9">KIRP(290)</text>
<g>
	<polygon fill="#00C5CD" points="99.223,81.822 96.234,84.819 93.367,87.922 90.613,91.137 87.989,94.458 85.494,97.868 
		83.121,101.375 80.893,104.972 78.795,108.649 176.676,161.964 	"/>
	
		<polygon fill="none" stroke="#000000" stroke-width="0.75" stroke-linecap="round" stroke-linejoin="round" stroke-miterlimit="10" points="
		99.223,81.822 96.234,84.819 93.367,87.922 90.613,91.137 87.989,94.458 85.494,97.868 83.121,101.375 80.893,104.972 
		78.795,108.649 176.676,161.964 	"/>
	
		<line fill="none" stroke="#000000" stroke-width="0.75" stroke-linecap="round" stroke-linejoin="round" stroke-miterlimit="10" x1="87.989" y1="94.458" x2="83.558" y2="91.081"/>
</g>
<text transform="matrix(1 0 0 1 35.9058 90.2783)" font-family="'ArialMT'" font-size="9">LGG(512)</text>
<g>
	<polygon fill="#A020F0" points="78.795,108.649 76.908,112.278 75.142,115.98 73.522,119.747 72.04,123.57 70.703,127.442 
		69.505,131.362 176.676,161.964 	"/>
	
		<polygon fill="none" stroke="#000000" stroke-width="0.75" stroke-linecap="round" stroke-linejoin="round" stroke-miterlimit="10" points="
		78.795,108.649 76.908,112.278 75.142,115.98 73.522,119.747 72.04,123.57 70.703,127.442 69.505,131.362 176.676,161.964 	"/>
	
		<line fill="none" stroke="#000000" stroke-width="0.75" stroke-linecap="round" stroke-linejoin="round" stroke-miterlimit="10" x1="73.522" y1="119.747" x2="68.371" y2="117.632"/>
</g>
<text transform="matrix(1 0 0 1 18.3774 118.1021)" font-family="'ArialMT'" font-size="9">LIHC(372)</text>
<g>
	<polygon fill="#0000FF" points="69.505,131.362 68.419,135.46 67.488,139.592 66.718,143.763 66.103,147.951 65.649,152.17 
		65.357,156.399 65.228,160.635 65.26,164.872 176.676,161.964 	"/>
	
		<polygon fill="none" stroke="#000000" stroke-width="0.75" stroke-linecap="round" stroke-linejoin="round" stroke-miterlimit="10" points="
		69.505,131.362 68.419,135.46 67.488,139.592 66.718,143.763 66.103,147.951 65.649,152.17 65.357,156.399 65.228,160.635 
		65.26,164.872 176.676,161.964 	"/>
	
		<line fill="none" stroke="#000000" stroke-width="0.75" stroke-linecap="round" stroke-linejoin="round" stroke-miterlimit="10" x1="66.103" y1="147.951" x2="60.578" y2="147.254"/>
</g>
<text transform="matrix(1 0 0 1 6.8267 149.1094)"><tspan x="0" y="0" font-family="'ArialMT'" font-size="9">L</tspan><tspan x="5.005" y="0" font-family="'ArialMT'" font-size="9">U</tspan><tspan x="11.145" y="0" font-family="'ArialMT'" font-size="9">AD(513)</tspan></text>
<g>
	<polygon fill="#8470FF" points="65.26,164.872 65.462,169.358 65.852,173.839 66.427,178.301 67.171,182.732 68.095,187.131 
		69.197,191.488 70.477,195.798 176.676,161.964 	"/>
	
		<polygon fill="none" stroke="#000000" stroke-width="0.75" stroke-linecap="round" stroke-linejoin="round" stroke-miterlimit="10" points="
		65.26,164.872 65.462,169.358 65.852,173.839 66.427,178.301 67.171,182.732 68.095,187.131 69.197,191.488 70.477,195.798 
		176.676,161.964 	"/>
	
		<line fill="none" stroke="#000000" stroke-width="0.75" stroke-linecap="round" stroke-linejoin="round" stroke-miterlimit="10" x1="66.775" y1="180.521" x2="61.283" y2="181.443"/>
</g>
<text transform="matrix(1 0 0 1 7.1753 184.9512)" font-family="'ArialMT'" font-size="9">LUSC(476)</text>
<g>
	<polygon fill="#B4CDCD" points="70.477,195.798 72.364,201.225 176.676,161.964 	"/>
	
		<polygon fill="none" stroke="#000000" stroke-width="0.75" stroke-linecap="round" stroke-linejoin="round" stroke-miterlimit="10" points="
		70.477,195.798 72.364,201.225 176.676,161.964 	"/>
	
		<line fill="none" stroke="#000000" stroke-width="0.75" stroke-linecap="round" stroke-linejoin="round" stroke-miterlimit="10" x1="71.384" y1="198.527" x2="66.119" y2="200.35"/>
</g>
<text transform="matrix(1 0 0 1 14.9517 204.7559)" font-family="'ArialMT'" font-size="9">MESO(87)</text>
<g>
	<polygon fill="#9932CC" points="72.364,201.225 73.992,205.314 75.79,209.332 77.734,213.277 79.84,217.141 82.092,220.924 
		84.49,224.609 87.042,228.197 176.676,161.964 	"/>
	
		<polygon fill="none" stroke="#000000" stroke-width="0.75" stroke-linecap="round" stroke-linejoin="round" stroke-miterlimit="10" points="
		72.364,201.225 73.992,205.314 75.79,209.332 77.734,213.277 79.84,217.141 82.092,220.924 84.49,224.609 87.042,228.197 
		176.676,161.964 	"/>
	
		<line fill="none" stroke="#000000" stroke-width="0.75" stroke-linecap="round" stroke-linejoin="round" stroke-miterlimit="10" x1="78.771" y1="215.221" x2="73.871" y2="217.887"/>
</g>
<text transform="matrix(1 0 0 1 32.731 223.126)"><tspan x="0" y="0" font-family="'ArialMT'" font-size="9">O</tspan><tspan x="6.56" y="0" font-family="'ArialMT'" font-size="9">V(466)</tspan></text>
<g>
	<polygon fill="#FFB6C1" points="87.042,228.197 90.654,232.839 94.518,237.278 176.676,161.964 	"/>
	
		<polygon fill="none" stroke="#000000" stroke-width="0.75" stroke-linecap="round" stroke-linejoin="round" stroke-miterlimit="10" points="
		87.042,228.197 90.654,232.839 94.518,237.278 176.676,161.964 	"/>
	
		<line fill="none" stroke="#000000" stroke-width="0.75" stroke-linecap="round" stroke-linejoin="round" stroke-miterlimit="10" x1="90.654" y1="232.839" x2="86.353" y2="236.379"/>
</g>
<text transform="matrix(1 0 0 1 34.0669 242.4854)"><tspan x="0" y="0" font-family="'ArialMT'" font-size="9" letter-spacing="-1">P</tspan><tspan x="4.923" y="0" font-family="'ArialMT'" font-size="9">AAD(178)</tspan></text>
<g>
	<polygon fill="#000080" points="94.518,237.278 98.624,241.53 102.958,245.563 176.676,161.964 	"/>
	
		<polygon fill="none" stroke="#000000" stroke-width="0.75" stroke-linecap="round" stroke-linejoin="round" stroke-miterlimit="10" points="
		94.518,237.278 98.624,241.53 102.958,245.563 176.676,161.964 	"/>
	
		<line fill="none" stroke="#000000" stroke-width="0.75" stroke-linecap="round" stroke-linejoin="round" stroke-miterlimit="10" x1="98.624" y1="241.53" x2="94.728" y2="245.508"/>
</g>
<text transform="matrix(1 0 0 1 40.5874 252.0605)" font-family="'ArialMT'" font-size="9">PCPG(179)</text>
<g>
	<polygon fill="#CD919E" points="102.958,245.563 105.995,248.148 109.13,250.618 112.346,252.983 115.65,255.229 119.028,257.35 
		122.479,259.35 125.994,261.229 129.583,262.979 176.676,161.964 	"/>
	
		<polygon fill="none" stroke="#000000" stroke-width="0.75" stroke-linecap="round" stroke-linejoin="round" stroke-miterlimit="10" points="
		102.958,245.563 105.995,248.148 109.13,250.618 112.346,252.983 115.65,255.229 119.028,257.35 122.479,259.35 125.994,261.229 
		129.583,262.979 176.676,161.964 	"/>
	
		<line fill="none" stroke="#000000" stroke-width="0.75" stroke-linecap="round" stroke-linejoin="round" stroke-miterlimit="10" x1="115.65" y1="255.229" x2="112.597" y2="259.894"/>
</g>
<text transform="matrix(1 0 0 1 59.8579 267.1104)" font-family="'ArialMT'" font-size="9">PRAD(483)</text>
<g>
	<polygon fill="#2E8B57" points="129.583,262.979 134.426,265.102 139.367,266.988 176.676,161.964 	"/>
	
		<polygon fill="none" stroke="#000000" stroke-width="0.75" stroke-linecap="round" stroke-linejoin="round" stroke-miterlimit="10" points="
		129.583,262.979 134.426,265.102 139.367,266.988 176.676,161.964 	"/>
	
		<line fill="none" stroke="#000000" stroke-width="0.75" stroke-linecap="round" stroke-linejoin="round" stroke-miterlimit="10" x1="134.426" y1="265.102" x2="132.312" y2="270.261"/>
</g>
<text transform="matrix(1 0 0 1 80.5132 277.9717)" font-family="'ArialMT'" font-size="9">READ(160)</text>
<g>
	<polygon fill="#757575" points="139.367,266.988 144.519,268.682 149.743,270.115 155.033,271.298 176.676,161.964 	"/>
	
		<polygon fill="none" stroke="#000000" stroke-width="0.75" stroke-linecap="round" stroke-linejoin="round" stroke-miterlimit="10" points="
		139.367,266.988 144.519,268.682 149.743,270.115 155.033,271.298 176.676,161.964 	"/>
	
		<line fill="none" stroke="#000000" stroke-width="0.75" stroke-linecap="round" stroke-linejoin="round" stroke-miterlimit="10" x1="147.119" y1="269.427" x2="145.645" y2="274.806"/>
</g>
<text transform="matrix(1 0 0 1 99.3374 287.6113)" font-family="'ArialMT'" font-size="9">SARC(246)</text>
<g>
	<polygon fill="#00FFFF" points="155.033,271.298 159.188,272.043 163.368,272.626 167.571,273.048 171.783,273.314 176.003,273.42 
		180.224,273.363 184.436,273.153 176.676,161.964 	"/>
	
		<polygon fill="none" stroke="#000000" stroke-width="0.75" stroke-linecap="round" stroke-linejoin="round" stroke-miterlimit="10" points="
		155.033,271.298 159.188,272.043 163.368,272.626 167.571,273.048 171.783,273.314 176.003,273.42 180.224,273.363 
		184.436,273.153 176.676,161.964 	"/>
	
		<line fill="none" stroke="#000000" stroke-width="0.75" stroke-linecap="round" stroke-linejoin="round" stroke-miterlimit="10" x1="169.677" y1="273.201" x2="169.321" y2="278.758"/>
</g>
<text transform="matrix(1 0 0 1 143.312 297.4277)" font-family="'ArialMT'" font-size="9">SKCM(447)</text>
<g>
	<polygon fill="#FF1493" points="184.436,273.153 188.922,272.748 193.394,272.156 197.833,271.396 202.24,270.448 206.605,269.329 
		210.915,268.033 176.676,161.964 	"/>
	
		<polygon fill="none" stroke="#000000" stroke-width="0.75" stroke-linecap="round" stroke-linejoin="round" stroke-miterlimit="10" points="
		184.436,273.153 188.922,272.748 193.394,272.156 197.833,271.396 202.24,270.448 206.605,269.329 210.915,268.033 
		176.676,161.964 	"/>
	
		<line fill="none" stroke="#000000" stroke-width="0.75" stroke-linecap="round" stroke-linejoin="round" stroke-miterlimit="10" x1="197.833" y1="271.396" x2="198.886" y2="276.863"/>
</g>
<text transform="matrix(1 0 0 1 191.8472 289.7734)"><tspan x="0" y="0" font-family="'ArialMT'" font-size="9">S</tspan><tspan x="6.003" y="0" font-family="'ArialMT'" font-size="9" letter-spacing="-1">T</tspan><tspan x="10.43" y="0" font-family="'ArialMT'" font-size="9">AD(409)</tspan></text>
<g>
	<polygon fill="#8B008B" points="210.915,268.033 220.205,264.566 176.676,161.964 	"/>
	
		<polygon fill="none" stroke="#000000" stroke-width="0.75" stroke-linecap="round" stroke-linejoin="round" stroke-miterlimit="10" points="
		210.915,268.033 220.205,264.566 176.676,161.964 	"/>
	
		<line fill="none" stroke="#000000" stroke-width="0.75" stroke-linecap="round" stroke-linejoin="round" stroke-miterlimit="10" x1="215.597" y1="266.406" x2="217.548" y2="271.621"/>
</g>
<text transform="matrix(1 0 0 1 219.4927 279.4219)" font-family="'ArialMT'" font-size="9">TGCT(150)</text>
<g>
	<polygon fill="#FFFF00" points="220.205,264.566 224.052,262.85 227.835,260.986 231.537,258.986 235.166,256.84 238.714,254.563 
		242.164,252.149 245.526,249.605 248.79,246.941 176.676,161.964 	"/>
	
		<polygon fill="none" stroke="#000000" stroke-width="0.75" stroke-linecap="round" stroke-linejoin="round" stroke-miterlimit="10" points="
		220.205,264.566 224.052,262.85 227.835,260.986 231.537,258.986 235.166,256.84 238.714,254.563 242.164,252.149 245.526,249.605 
		248.79,246.941 176.676,161.964 	"/>
	
		<line fill="none" stroke="#000000" stroke-width="0.75" stroke-linecap="round" stroke-linejoin="round" stroke-miterlimit="10" x1="235.166" y1="256.84" x2="238.089" y2="261.586"/>
</g>
<text transform="matrix(1 0 0 1 241.0142 268.9004)" font-family="'ArialMT'" font-size="9">THCA(510)</text>
<g>
	<polygon fill="#FFE4C4" points="248.79,246.941 254.841,241.417 176.676,161.964 	"/>
	
		<polygon fill="none" stroke="#000000" stroke-width="0.75" stroke-linecap="round" stroke-linejoin="round" stroke-miterlimit="10" points="
		248.79,246.941 254.841,241.417 176.676,161.964 	"/>
	
		<line fill="none" stroke="#000000" stroke-width="0.75" stroke-linecap="round" stroke-linejoin="round" stroke-miterlimit="10" x1="251.869" y1="244.236" x2="255.626" y2="248.351"/>
</g>
<text transform="matrix(1 0 0 1 259.3843 255.0166)" font-family="'ArialMT'" font-size="9">THYM(124)</text>
<g>
	<polygon fill="#DDA0DD" points="254.841,241.417 257.612,238.598 260.277,235.674 262.835,232.669 265.291,229.566 
		267.631,226.383 269.851,223.119 271.964,219.781 273.949,216.363 275.82,212.889 176.676,161.964 	"/>
	
		<polygon fill="none" stroke="#000000" stroke-width="0.75" stroke-linecap="round" stroke-linejoin="round" stroke-miterlimit="10" points="
		254.841,241.417 257.612,238.598 260.277,235.674 262.835,232.669 265.291,229.566 267.631,226.383 269.851,223.119 
		271.964,219.781 273.949,216.363 275.82,212.889 176.676,161.964 	"/>
	
		<line fill="none" stroke="#000000" stroke-width="0.75" stroke-linecap="round" stroke-linejoin="round" stroke-miterlimit="10" x1="266.472" y1="227.986" x2="270.959" y2="231.291"/>
</g>
<text transform="matrix(1 0 0 1 275.4478 237.1641)" font-family="'ArialMT'" font-size="9">UCEC(538)</text>
<g>
	<polygon fill="#FF6347" points="275.82,212.889 277.48,209.502 176.676,161.964 	"/>
	
		<polygon fill="none" stroke="#000000" stroke-width="0.75" stroke-linecap="round" stroke-linejoin="round" stroke-miterlimit="10" points="
		275.82,212.889 277.48,209.502 176.676,161.964 	"/>
	
		<line fill="none" stroke="#000000" stroke-width="0.75" stroke-linecap="round" stroke-linejoin="round" stroke-miterlimit="10" x1="276.669" y1="211.203" x2="281.668" y2="213.666"/>
</g>
<text transform="matrix(1 0 0 1 286.6655 222.7539)" font-family="'ArialMT'" font-size="9">UCS(57)</text>
<g>
	<polygon fill="#BDB76B" points="277.48,209.502 279.627,204.666 176.676,161.964 	"/>
	
		<polygon fill="none" stroke="#000000" stroke-width="0.75" stroke-linecap="round" stroke-linejoin="round" stroke-miterlimit="10" points="
		277.48,209.502 279.627,204.666 176.676,161.964 	"/>
	
		<line fill="none" stroke="#000000" stroke-width="0.75" stroke-linecap="round" stroke-linejoin="round" stroke-miterlimit="10" x1="278.583" y1="207.097" x2="283.677" y2="209.356"/>
</g>
<text transform="matrix(1 0 0 1 288.772 212.168)" font-family="'ArialMT'" font-size="9">UVM(80)</text>
<g>
	<polygon fill="#FFFFFF" points="279.627,204.666 281.084,200.965 282.414,197.206 283.604,193.408 284.658,189.561 
		285.581,185.688 286.358,181.776 286.998,177.848 287.492,173.896 287.849,169.926 288.06,165.949 288.131,161.964 
		176.676,161.964 	"/>
	
		<polygon fill="none" stroke="#000000" stroke-width="0.75" stroke-linecap="round" stroke-linejoin="round" stroke-miterlimit="10" points="
		279.627,204.666 281.084,200.965 282.414,197.206 283.604,193.408 284.658,189.561 285.581,185.688 286.358,181.776 
		286.998,177.848 287.492,173.896 287.849,169.926 288.06,165.949 288.131,161.964 176.676,161.964 	"/>
	
		<line fill="none" stroke="#000000" stroke-width="0.75" stroke-linecap="round" stroke-linejoin="round" stroke-miterlimit="10" x1="285.986" y1="183.736" x2="291.453" y2="184.822"/>
</g>
<text transform="matrix(1 0 0 1 296.9116 188.4658)"><tspan x="0" y="0" font-family="'ArialMT'" font-size="9">No</tspan><tspan x="11.506" y="0" font-family="'ArialMT'" font-size="9">r</tspan><tspan x="14.719" y="0" font-family="'ArialMT'" font-size="9">mal(663)</tspan></text>
</svg>
